<?xml version="1.0" encoding="UTF-8"?><svg id="Layer_2" xmlns="http://www.w3.org/2000/svg" viewBox="0 0 495.31 172.67"><defs><style>.cls-1,.cls-2{stroke-width:5px;}.cls-1,.cls-2,.cls-3,.cls-4{stroke-miterlimit:10;}.cls-1,.cls-2,.cls-4{stroke:#000;}.cls-1,.cls-4{fill:#f4f4f5;}.cls-2,.cls-3{fill:#f58558;}.cls-3{stroke:#303030;stroke-width:5.22px;}.cls-4{stroke-width:4.35px;}</style></defs><g id="Layer_1-2"><g><path class="cls-1" d="M447.94,49.96h-25.24c-4.25,0-7.69,3.44-7.69,7.69v58.75c0,9.32-5.02,14.82-14.11,14.82s-13.62-5.5-13.62-14.82V57.66c0-4.25-3.44-7.69-7.69-7.69h-25.24c-4.25,0-7.69,3.44-7.69,7.69v70.93c0,24.86,10.75,39.2,32.27,39.2,16.75,0,30.19-4.78,36.1-31.38,.3-1.3,1.46-2.24,2.8-2.24,1.57,0,2.86,1.29,2.86,2.86v19.49c0,4.25,3.44,7.69,7.69,7.69h19.57c4.24,0,7.69-3.44,7.69-7.69V57.66c0-4.25-3.45-7.69-7.69-7.69Z"/><path class="cls-1" d="M301.36,46.37c-37.53,0-60.23,22.47-60.23,60.71s22.71,60.7,60.23,60.7,59.75-22.7,59.75-60.7-22.94-60.71-59.75-60.71Zm-.24,84.37c-12.67,0-19.36-9.32-19.36-23.66s6.69-23.91,19.36-23.91,19.36,9.56,19.36,23.91-6.69,23.66-19.36,23.66Z"/><path class="cls-1" d="M200.72,151.01v-31.86c0-2.04-.51-4.05-1.48-5.85L151.98,25.69c-2.93-5.43,1-12.01,7.17-12.01h27.25c5.36,0,10.25,3.07,12.57,7.9l24.19,50.34h.5l24.19-50.34c2.32-4.83,7.21-7.9,12.57-7.9h27.26c6.16,0,10.09,6.58,7.17,12.01l-47.25,87.61c-.97,1.8-1.48,3.8-1.48,5.85v31.86c0,7.7-6.24,13.94-13.94,13.94h-17.5c-7.7,0-13.94-6.24-13.94-13.94Z"/></g><path class="cls-4" d="M491.86,45c-3.51-7.53-15.31-7.51-20.17-3.97,1.47-6.92,.22-12.48-7.8-14.91s-14.09-.8-18.65,5.43c-6.29,8.58-1.36,32.51,3.53,35.89,5.03,3.49,27.18,3.34,35.39-2.26,7.84-5.36,10.97-13.17,7.71-20.17Z"/><path class="cls-2" d="M94.3,109.03c0-42.61,22.19-67.57,63.03-67.57,38.07,0,55.21,24.2,55.21,56.73,0,4.42,.13,7.37,.01,11.29-.09,2.7-2.31,4.84-5.01,4.84h-64.69c-3.39,0-5.84,3.31-4.79,6.53,2.83,8.66,8.89,11.87,19.02,11.87s13.72-3.55,16.1-8.32c1.08-2.16,3.61-3.19,5.94-2.53l27.21,7.69c2.77,.78,4.35,3.74,3.38,6.45-6.56,18.46-21.68,33.53-53.14,33.53-36.05,0-62.27-19.92-62.27-60.51Zm48.35-13.11h25.32c3.17,0,5.52-2.89,4.92-6-1.74-9.11-7.35-13.16-16.82-13.16s-15.7,3.49-18.26,12.79c-.88,3.2,1.51,6.37,4.83,6.37Z"/><path class="cls-3" d="M38.6,70.87h.6c1.24,0,2.34-.84,2.66-2.04,7.1-26.86,25.92-34.22,43.88-34.22,28.26,0,42.66,24.8,42.66,66.66s-14.67,68.79-44,68.79c-17.43,0-33.26,.03-40.34-26.83-.32-1.2-1.41-2.04-2.66-2.04h0c-1.72,0-3.03,1.57-2.71,3.26l1.86,15.76c0,3.23-2.62,5.85-5.85,5.85H8.46c-3.23,0-5.85-2.62-5.85-5.85V8.46c0-3.23,2.62-5.85,5.85-5.85h26.23c3.23,0,5.85,2.62,5.85,5.85l-4.69,59.44c-.13,1.6,1.14,2.97,2.75,2.97Zm52.4,30.66c0-16.26-5.33-26.13-19.46-26.13-12,0-18.66,9.06-18.66,25.06v2.67c0,16.53,6.67,26.13,18.66,26.13,14.13,0,19.46-10.4,19.46-27.73Z"/></g></svg>